<svg width="143" height="71" viewBox="0 0 143 71" fill="none" xmlns="http://www.w3.org/2000/svg">
<path d="M96.0953 54.7717H39.8733" stroke="#151522" stroke-width="2" stroke-miterlimit="10"/>
<path d="M39.8688 54.7729C39.8688 62.3264 34.6181 68.4637 28.1558 68.4637C21.6935 68.4637 16.4429 62.3264 16.4429 54.7729C16.4429 47.2193 21.6935 41.082 28.1558 41.082C34.6181 41.082 39.8688 47.2193 39.8688 54.7729Z" stroke="#151522" stroke-width="2" stroke-miterlimit="10"/>
<path d="M119.51 54.7729C119.51 62.3264 114.26 68.4637 107.797 68.4637C101.335 68.4637 96.0845 62.3264 96.0845 54.7729C96.0845 47.2193 101.335 41.082 107.797 41.082C114.26 41.082 119.51 47.2193 119.51 54.7729Z" stroke="#151522" stroke-width="2" stroke-miterlimit="10"/>
<path d="M133.53 20.8271C135.711 20.8271 137.488 22.9044 137.488 25.4537L137.569 43.8655H140.679V49.4362C140.679 52.3633 138.659 54.7237 136.155 54.7237H119.515" stroke="#151522" stroke-width="2" stroke-miterlimit="10"/>
<path d="M16.4442 54.7719H2.30791C2.30791 54.7719 0.611554 48.6346 2.14635 43.9136H5.82178V31.7807C5.82178 28.5705 7.59891 25.7379 10.2242 24.7937C14.2228 23.3302 21.614 21.3002 34.7002 19.3174C34.7002 19.3174 50.3308 3.54933 58.5703 1.4721C60.3474 1.04721 71.9391 1 77.7956 1C79.6535 1 81.1883 2.74676 81.2287 4.91841L81.5518 41.1755C81.5518 42.9222 82.7635 44.2913 84.2579 44.2913H91.9723" stroke="#151522" stroke-width="2" stroke-miterlimit="10"/>
<path d="M86.8871 20.4983L133.537 20.8288" stroke="#151522" stroke-width="2" stroke-miterlimit="10"/>
<path d="M1.58301 43.9114H12.4477" stroke="#151522" stroke-width="2" stroke-miterlimit="10"/>
<path d="M142.981 68.8894L0.00296021 69.3143" stroke="#151522" stroke-width="2" stroke-miterlimit="10"/>
<path d="M137.577 43.9114H130.671" stroke="#151522" stroke-width="2" stroke-miterlimit="10"/>
<path d="M75.531 35.5842H43.1387" stroke="#151522" stroke-width="2" stroke-miterlimit="10"/>
</svg>
