<svg width="132" height="58" viewBox="0 0 132 58" fill="none" xmlns="http://www.w3.org/2000/svg">
<path d="M90.2358 48.413H49.1758" stroke="#151522" stroke-width="2" stroke-miterlimit="10"/>
<path d="M43.8024 44.1488C43.8024 50.6553 38.5031 55.912 31.9439 55.912C25.3846 55.912 20.0854 50.6553 20.0854 44.1488C20.0854 37.6423 25.3846 32.3856 31.9439 32.3856C38.5031 32.3856 43.8024 37.6423 43.8024 44.1488Z" stroke="#151522" stroke-width="2" stroke-miterlimit="10"/>
<path d="M113.953 44.1488C113.953 50.6553 108.654 55.912 102.094 55.912C95.5351 55.912 90.2358 50.6553 90.2358 44.1488C90.2358 37.6423 95.5351 32.3856 102.094 32.3856C108.654 32.3856 113.953 37.6423 113.953 44.1488Z" stroke="#151522" stroke-width="2" stroke-miterlimit="10"/>
<path d="M38.5401 14.851L43.1353 18.1595C43.1353 18.1595 61.4048 18.5638 96.4245 17.1669C100.686 16.9831 101.687 8.78564 101.687 8.78564" stroke="#151522" stroke-width="2" stroke-miterlimit="10"/>
<path d="M81.7125 2.09534C81.7125 2.09534 77.7844 9.96198 76.3021 17.8286" stroke="#151522" stroke-width="2" stroke-miterlimit="10"/>
<path d="M20.0483 48.413H4.9287C1.88996 47.0161 2.33466 42.8622 2.33466 42.8622L5.89221 41.2815V26.5775C5.89221 26.5775 5.89221 19.4461 38.5402 14.8143C38.5402 14.8143 54.4009 4.30093 62.7389 2.49969C75.0792 -0.110271 114.36 5.14641 114.36 5.14641L113.063 8.08722C113.063 8.08722 116.955 14.0791 126.664 19.5563C129.962 21.4311 126.96 34.628 126.96 34.628H130.11V41.7226C127.59 44.5532 118.066 48.3394 113.953 48.3394" stroke="#151522" stroke-width="2" stroke-miterlimit="10"/>
<path d="M121.364 34.7383H126.96" stroke="#151522" stroke-width="2" stroke-miterlimit="10"/>
<path d="M5.89218 41.3182H11.1173" stroke="#151522" stroke-width="2" stroke-miterlimit="10"/>
<path d="M114.472 48.413H131.852" stroke="#151522" stroke-width="2" stroke-miterlimit="10"/>
<path d="M0 55.912H131.852" stroke="#151522" stroke-width="2" stroke-miterlimit="10"/>
</svg>
