<svg width="142" height="57" viewBox="0 0 142 57" fill="none" xmlns="http://www.w3.org/2000/svg">
<path d="M142 54.7683H0" stroke="#151522" stroke-width="2" stroke-miterlimit="10"/>
<path d="M46.1667 14.2388L50.5317 17.1848C50.5317 17.1848 80.8114 18.7024 102.597 14.7298C111.288 13.1229 114.984 12.8551 124.54 13.4353C124.54 13.4353 128.315 13.8817 136.259 14.0156L136.573 27.451L139.916 29.0133V39.6366C137.242 43.0736 124.855 45.6178 120.49 45.6178" stroke="#151522" stroke-width="2" stroke-miterlimit="10"/>
<path d="M27.2911 45.6625H6.09528V39.1457L9.90973 37.3156L6.76379 30.1293C6.76379 30.1293 13.0163 22.4073 46.1274 14.2835C46.1274 14.2835 57.3348 7.05252 71.0197 2.14258" stroke="#151522" stroke-width="2" stroke-miterlimit="10"/>
<path d="M121.709 42.9398C121.709 49.5013 117.029 54.7683 111.288 54.7683C105.546 54.7683 100.867 49.4567 100.867 42.9398C100.867 36.423 105.546 31.1113 111.288 31.1113C117.029 31.1113 121.709 36.423 121.709 42.9398Z" stroke="#151522" stroke-width="2" stroke-miterlimit="10"/>
<path d="M46.6779 42.9398C46.6779 49.5013 41.9983 54.7683 36.257 54.7683C30.5157 54.7683 25.8361 49.4567 25.8361 42.9398C25.8361 36.423 30.5157 31.1113 36.257 31.1113C41.9983 31.1113 46.6779 36.423 46.6779 42.9398Z" stroke="#151522" stroke-width="2" stroke-miterlimit="10"/>
<path d="M101.85 45.6626H51.6721" stroke="#151522" stroke-width="2" stroke-miterlimit="10"/>
<path d="M6.09526 45.6626H0" stroke="#151522" stroke-width="2" stroke-miterlimit="10"/>
<path d="M16.005 37.3157H9.90973" stroke="#151522" stroke-width="2" stroke-miterlimit="10"/>
<path d="M136.573 27.4511C132.169 27.2279 128.158 27.1386 124.54 27.1833" stroke="#151522" stroke-width="2" stroke-miterlimit="10"/>
<path d="M121.04 45.6626H142" stroke="#151522" stroke-width="2" stroke-miterlimit="10"/>
<path d="M99.4905 8.43628L97.2883 15.578" stroke="#151522" stroke-width="2" stroke-miterlimit="10"/>
</svg>
