<svg width="98" height="97" viewBox="0 0 98 97" fill="none" xmlns="http://www.w3.org/2000/svg">
<path d="M65.0953 64.3809V12.0714H4.73816V64.3809H65.0953ZM65.0953 64.3809H93.2619V44.2619L81.1905 32.1905H65.0953V64.3809ZM32.9048 74.4404C32.9048 79.9962 28.401 84.5 22.8453 84.5C17.2896 84.5 12.7858 79.9962 12.7858 74.4404C12.7858 68.8847 17.2896 64.3809 22.8453 64.3809C28.401 64.3809 32.9048 68.8847 32.9048 74.4404ZM85.2143 74.4404C85.2143 79.9962 80.7105 84.5 75.1548 84.5C69.5991 84.5 65.0953 79.9962 65.0953 74.4404C65.0953 68.8847 69.5991 64.3809 75.1548 64.3809C80.7105 64.3809 85.2143 68.8847 85.2143 74.4404Z" stroke="#06668C" stroke-width="4" stroke-linecap="round" stroke-linejoin="round"/>
</svg>
