<svg width="248" height="113" viewBox="0 0 248 113" fill="none" xmlns="http://www.w3.org/2000/svg">
<path d="M140.095 72.3809V20.0714H79.7382V72.3809H140.095ZM140.095 72.3809H168.262V52.2619L156.191 40.1905H140.095V72.3809ZM107.905 82.4404C107.905 87.9962 103.401 92.5 97.8453 92.5C92.2896 92.5 87.7858 87.9962 87.7858 82.4404C87.7858 76.8847 92.2896 72.3809 97.8453 72.3809C103.401 72.3809 107.905 76.8847 107.905 82.4404ZM160.214 82.4404C160.214 87.9962 155.711 92.5 150.155 92.5C144.599 92.5 140.095 87.9962 140.095 82.4404C140.095 76.8847 144.599 72.3809 150.155 72.3809C155.711 72.3809 160.214 76.8847 160.214 82.4404Z" stroke="#06668C" stroke-width="4" stroke-linecap="round" stroke-linejoin="round"/>
</svg>
