<svg width="824" height="452" viewBox="0 0 824 452" fill="none" xmlns="http://www.w3.org/2000/svg">
<g clip-path="url(#clip0_75_24488)">
<path d="M318.285 335.94C332.487 335.344 344.912 356.66 346.039 383.56C347.166 410.457 336.566 432.746 322.364 433.346L297.088 434.499C297.088 434.499 304.084 336.537 318.285 335.94Z" fill="#FFFCFC"/>
<path d="M297.088 435.248C296.888 435.248 296.695 435.167 296.553 435.024C296.404 434.872 296.329 434.662 296.343 434.451C296.36 434.207 298.133 409.653 301.623 385.343C303.674 371.048 305.908 359.623 308.267 351.392C311.34 340.649 314.61 335.354 318.255 335.198C325.396 334.889 332.321 339.822 337.71 349.067C343.01 358.162 346.235 370.403 346.784 383.53C347.924 410.796 336.985 433.479 322.398 434.092L297.121 435.245C297.121 435.245 297.098 435.245 297.088 435.245V435.248ZM318.319 336.686C315.236 336.815 309.157 343.337 303.099 385.55C299.981 407.28 298.235 429.207 297.893 433.716L322.33 432.6C336.102 432.021 346.401 410.036 345.294 383.591C344.756 370.702 341.605 358.708 336.423 349.816C331.326 341.073 324.889 336.412 318.319 336.686Z" fill="#06668C"/>
<path d="M297.088 434.502C311.301 434.502 322.824 412.678 322.824 385.757C322.824 358.836 311.301 337.012 297.088 337.012C282.874 337.012 271.351 358.836 271.351 385.757C271.351 412.678 282.874 434.502 297.088 434.502Z" fill="#FFFCFC"/>
<path d="M297.087 435.248C282.486 435.248 270.606 413.047 270.606 385.757C270.606 358.467 282.486 336.266 297.087 336.266C311.689 336.266 323.569 358.467 323.569 385.757C323.569 413.047 311.689 435.248 297.087 435.248ZM297.087 337.757C283.309 337.757 272.096 359.291 272.096 385.757C272.096 412.223 283.305 433.757 297.087 433.757C310.87 433.757 322.079 412.223 322.079 385.757C322.079 359.291 310.87 337.757 297.087 337.757Z" fill="#06668C"/>
<path d="M297.087 402.267C301.901 402.267 305.803 394.875 305.803 385.757C305.803 376.639 301.901 369.248 297.087 369.248C292.274 369.248 288.372 376.639 288.372 385.757C288.372 394.875 292.274 402.267 297.087 402.267Z" fill="#FFFCFC"/>
<path d="M297.088 403.009C291.78 403.009 287.628 395.429 287.628 385.754C287.628 376.078 291.784 368.498 297.088 368.498C302.391 368.498 306.547 376.078 306.547 385.754C306.547 395.429 302.391 403.009 297.088 403.009ZM297.088 369.993C292.765 369.993 289.117 377.211 289.117 385.754C289.117 394.297 292.765 401.514 297.088 401.514C301.41 401.514 305.058 394.297 305.058 385.754C305.058 377.211 301.41 369.993 297.088 369.993Z" fill="#06668C"/>
<path d="M419.485 389.35H702.255V64.8459L419.485 49.7467V389.35Z" fill="#06668C"/>
<path d="M702.255 390.096H419.488C419.075 390.096 418.744 389.764 418.744 389.35V49.7467C418.744 49.5433 418.828 49.3467 418.977 49.2043C419.126 49.0619 419.309 49.0009 419.529 49.0009L702.296 64.1001C702.692 64.1205 703 64.4493 703 64.8459V389.35C703 389.764 702.668 390.096 702.255 390.096ZM420.233 388.601H701.511V65.5511L420.233 50.5298V388.601Z" fill="#06668C"/>
<path d="M189.403 351.602L419.485 389.35V49.7468L189.403 132.792V351.602Z" fill="#CDF1FE"/>
<path d="M419.485 390.096C419.444 390.096 419.404 390.096 419.363 390.086L189.278 352.338C188.919 352.277 188.655 351.968 188.655 351.602V132.792C188.655 132.477 188.851 132.196 189.149 132.091L419.235 49.045C419.465 48.9603 419.719 48.9976 419.915 49.1366C420.115 49.2756 420.233 49.5061 420.233 49.7468V389.35C420.233 389.571 420.138 389.777 419.969 389.92C419.834 390.035 419.661 390.096 419.485 390.096ZM190.148 350.968L418.74 388.472V50.8078L190.148 133.315V350.965V350.968Z" fill="#06668C"/>
<path d="M537.381 313.919C557.157 313.085 574.463 342.778 576.03 380.235C577.597 417.694 562.837 448.734 543.06 449.568L507.857 451.174C507.857 451.174 517.601 314.749 537.381 313.915V313.919Z" fill="#FFFCFC"/>
<path d="M507.86 451.924C507.661 451.924 507.468 451.842 507.326 451.7C507.177 451.547 507.102 451.337 507.116 451.127C507.139 450.785 509.61 416.603 514.467 382.757C521.04 336.951 528.74 313.539 537.35 313.176C547.196 312.766 556.731 319.57 564.18 332.343C571.542 344.971 576.013 361.969 576.778 380.207C578.362 418.016 563.249 449.469 543.094 450.317L507.894 451.924C507.894 451.924 507.871 451.924 507.86 451.924ZM538.197 314.647C537.936 314.647 537.672 314.654 537.411 314.664C521.849 315.322 511.451 412.04 508.663 450.395L543.026 448.825C562.366 448.011 576.835 417.257 575.288 380.268C574.534 362.271 570.134 345.517 562.894 333.096C555.942 321.167 547.2 314.651 538.2 314.651L538.197 314.647Z" fill="#06668C"/>
<path d="M507.86 451.178C527.656 451.178 543.703 420.784 543.703 383.292C543.703 345.8 527.656 315.407 507.86 315.407C488.065 315.407 472.017 345.8 472.017 383.292C472.017 420.784 488.065 451.178 507.86 451.178Z" fill="#FFFCFC"/>
<path d="M507.86 451.924C487.685 451.924 471.273 421.135 471.273 383.292C471.273 345.449 487.685 314.661 507.86 314.661C528.036 314.661 544.448 345.449 544.448 383.292C544.448 421.135 528.036 451.924 507.86 451.924ZM507.86 316.153C488.507 316.153 472.762 346.27 472.762 383.292C472.762 420.315 488.507 450.432 507.86 450.432C527.214 450.432 542.955 420.312 542.955 383.292C542.955 346.273 527.21 316.153 507.86 316.153Z" fill="#06668C"/>
<path d="M507.86 406.284C514.564 406.284 519.998 395.99 519.998 383.292C519.998 370.595 514.564 360.301 507.86 360.301C501.157 360.301 495.723 370.595 495.723 383.292C495.723 395.99 501.157 406.284 507.86 406.284Z" fill="#FFFCFC"/>
<path d="M507.86 407.026C500.634 407.026 494.975 396.602 494.975 383.289C494.975 369.976 500.756 359.552 507.86 359.552C514.965 359.552 520.742 370.2 520.742 383.289C520.742 396.378 514.965 407.026 507.86 407.026ZM507.86 361.047C501.579 361.047 496.468 371.024 496.468 383.289C496.468 395.554 501.579 405.531 507.86 405.531C514.142 405.531 519.253 395.554 519.253 383.289C519.253 371.024 514.142 361.047 507.86 361.047Z" fill="#06668C"/>
<path d="M740.593 304.105C760.369 303.271 777.674 332.964 779.241 370.42C780.808 407.88 766.048 438.923 746.272 439.753L711.069 441.36C711.069 441.36 720.813 304.935 740.593 304.101V304.105Z" fill="#FFFCFC"/>
<path d="M711.069 442.109C710.869 442.109 710.676 442.028 710.534 441.886C710.385 441.733 710.311 441.523 710.324 441.313C710.348 440.97 712.819 406.789 717.675 372.943C724.248 327.136 731.948 303.725 740.559 303.362C750.405 302.942 759.942 309.756 767.389 322.529C774.75 335.157 779.221 352.155 779.986 370.393C781.57 408.202 766.458 439.655 746.303 440.503L711.103 442.109C711.103 442.109 711.079 442.109 711.069 442.109ZM741.408 304.833C741.148 304.833 740.884 304.84 740.623 304.85C725.057 305.508 714.663 402.226 711.874 440.577L746.238 439.008C765.578 438.194 780.047 407.44 778.497 370.451C777.742 352.453 773.342 335.7 766.102 323.279C759.15 311.349 750.408 304.833 741.408 304.833Z" fill="#06668C"/>
<path d="M711.069 441.364C730.864 441.364 746.912 410.97 746.912 373.478C746.912 335.986 730.864 305.593 711.069 305.593C691.273 305.593 675.226 335.986 675.226 373.478C675.226 410.97 691.273 441.364 711.069 441.364Z" fill="#FFFCFC"/>
<path d="M711.069 442.109C690.893 442.109 674.481 411.321 674.481 373.478C674.481 335.635 690.893 304.847 711.069 304.847C731.244 304.847 747.656 335.635 747.656 373.478C747.656 411.321 731.244 442.109 711.069 442.109ZM711.069 306.339C691.716 306.339 675.974 336.456 675.974 373.478C675.974 410.501 691.719 440.618 711.069 440.618C730.418 440.618 746.167 410.501 746.167 373.478C746.167 336.456 730.422 306.339 711.069 306.339Z" fill="#06668C"/>
<path d="M770.198 235.663L772.283 235.229C779.698 233.68 785.016 227.127 785.016 219.527V176.212C785.016 168.615 779.702 162.059 772.283 160.509L770.198 160.076C766.647 159.333 763.313 162.055 763.313 165.693V230.046C763.313 233.683 766.647 236.406 770.198 235.663Z" fill="#FFFCFC"/>
<path d="M769.023 236.531C767.554 236.531 766.123 236.029 764.958 235.08C763.439 233.843 762.569 232.009 762.569 230.046V165.693C762.569 163.73 763.439 161.896 764.958 160.659C766.475 159.425 768.438 158.943 770.35 159.343L772.435 159.777C780.155 161.388 785.76 168.3 785.76 176.209V219.523C785.76 227.432 780.155 234.344 772.435 235.955L770.35 236.389C769.91 236.48 769.463 236.528 769.023 236.528V236.531ZM769.027 160.699C767.896 160.699 766.796 161.086 765.899 161.818C764.728 162.771 764.058 164.181 764.058 165.693V230.046C764.058 231.558 764.728 232.968 765.899 233.921C767.064 234.87 768.577 235.239 770.045 234.931L772.13 234.497C779.164 233.029 784.268 226.73 784.268 219.527V176.212C784.268 169.005 779.164 162.71 772.13 161.242L770.045 160.808C769.707 160.737 769.365 160.703 769.027 160.703V160.699Z" fill="#06668C"/>
<path d="M582.356 389.35L543.7 382.113L537.381 357.21C529.854 327.553 505.796 305.017 475.788 299.508L461.4 296.867V138.654L525.034 123.555L596.581 292.687L582.359 389.35H582.356Z" fill="#FFFCFC"/>
<path d="M582.356 390.096C582.308 390.096 582.264 390.093 582.22 390.083L543.565 382.845C543.28 382.791 543.05 382.577 542.979 382.296L536.66 357.393C529.227 328.113 505.281 305.678 475.652 300.243L461.265 297.602C460.909 297.538 460.652 297.23 460.652 296.867V138.654C460.652 138.308 460.889 138.006 461.224 137.928L524.858 122.829C525.213 122.744 525.575 122.928 525.718 123.263L597.265 292.395C597.319 292.521 597.336 292.66 597.315 292.795L583.093 389.459C583.063 389.659 582.955 389.839 582.789 389.957C582.66 390.049 582.511 390.096 582.356 390.096ZM544.306 381.465L581.733 388.472L595.809 292.785L524.591 124.426L462.145 139.244V296.246L475.923 298.772C506.124 304.315 530.53 327.177 538.105 357.023L544.306 381.462V381.465Z" fill="#06668C"/>
<path d="M543.7 243.898H777.695L759.025 123.555H525.03L543.7 243.898Z" fill="#FFFCFC"/>
<path d="M777.695 244.643H543.703C543.334 244.643 543.023 244.376 542.965 244.013L524.296 123.67C524.262 123.456 524.326 123.236 524.465 123.07C524.607 122.904 524.814 122.809 525.03 122.809H759.022C759.391 122.809 759.702 123.077 759.76 123.439L778.429 243.782C778.463 243.996 778.399 244.216 778.26 244.382C778.118 244.548 777.911 244.643 777.695 244.643ZM544.34 243.152H776.825L758.385 124.301H525.9L544.34 243.152Z" fill="#06668C"/>
<path d="M766.106 234.402H552.879C552.51 234.402 552.199 234.134 552.141 233.772L536.254 131.698C536.22 131.481 536.284 131.264 536.423 131.098C536.565 130.931 536.772 130.836 536.988 130.836H750.215C750.584 130.836 750.895 131.104 750.953 131.467L766.84 233.541C766.874 233.758 766.81 233.975 766.671 234.141C766.529 234.307 766.322 234.402 766.106 234.402ZM553.519 232.91H765.236L749.582 132.331H537.865L553.519 232.91Z" fill="#06668C"/>
<path d="M543.7 243.898H777.519L814.929 292.687H581.113L543.7 243.898Z" fill="#FFFCFC"/>
<path d="M814.929 293.433H581.113C580.883 293.433 580.663 293.324 580.521 293.141L543.111 244.352C542.938 244.125 542.908 243.823 543.033 243.565C543.158 243.311 543.419 243.148 543.7 243.148H777.515C777.745 243.148 777.965 243.257 778.108 243.44L815.518 292.229C815.69 292.456 815.721 292.758 815.595 293.016C815.47 293.27 815.21 293.433 814.929 293.433ZM581.479 291.941H813.416L777.15 244.647H545.213L581.479 291.941Z" fill="#06668C"/>
<path d="M582.355 389.35L814.929 389.35V292.687H582.355V389.35Z" fill="#FFFCFC"/>
<path d="M814.929 390.096H582.355C581.943 390.096 581.611 389.764 581.611 389.35V292.687C581.611 292.273 581.943 291.941 582.355 291.941H814.929C815.342 291.941 815.673 292.273 815.673 292.687V389.35C815.673 389.764 815.342 390.096 814.929 390.096ZM583.104 388.601H814.184V293.433H583.104V388.601Z" fill="#06668C"/>
<path d="M533.316 244.643C533.285 244.643 533.252 244.643 533.218 244.637L471.916 236.609C471.506 236.555 471.219 236.182 471.273 235.772C471.324 235.365 471.696 235.07 472.109 235.128L532.439 243.03L517.862 138.573C517.804 138.166 518.089 137.786 518.498 137.728C518.904 137.667 519.283 137.956 519.341 138.366L534.054 243.796C534.084 244.026 534.01 244.26 533.844 244.426C533.705 244.569 533.512 244.647 533.316 244.647V244.643Z" fill="#06668C"/>
<path d="M528.997 157.947L526.912 158.38C519.497 159.93 514.179 166.483 514.179 174.083V217.398C514.179 224.995 519.493 231.551 526.912 233.1L528.997 233.534C532.548 234.277 535.882 231.554 535.882 227.917V163.564C535.882 159.926 532.548 157.207 528.997 157.947Z" fill="#FFFCFC"/>
<path d="M530.172 234.402C529.732 234.402 529.288 234.358 528.845 234.263L526.76 233.829C519.04 232.215 513.435 225.307 513.435 217.398V174.083C513.435 166.174 519.04 159.262 526.76 157.652L528.845 157.218C530.757 156.818 532.72 157.296 534.237 158.533C535.756 159.77 536.626 161.604 536.626 163.567V227.92C536.626 229.883 535.756 231.717 534.237 232.954C533.072 233.904 531.641 234.405 530.172 234.405V234.402ZM529.15 158.679L527.065 159.113C520.031 160.581 514.927 166.876 514.927 174.083V217.398C514.927 224.605 520.031 230.9 527.065 232.368L529.15 232.802C530.618 233.11 532.131 232.741 533.299 231.792C534.467 230.839 535.137 229.425 535.137 227.917V163.564C535.137 162.052 534.467 160.642 533.299 159.689C532.135 158.74 530.622 158.37 529.15 158.679Z" fill="#06668C"/>
<path d="M596.578 375.573H823.173V326.676H596.578V375.573Z" fill="#FFFCFC"/>
<path d="M823.174 376.323H596.578C596.165 376.323 595.833 375.99 595.833 375.577V326.679C595.833 326.265 596.165 325.933 596.578 325.933H823.174C823.586 325.933 823.918 326.265 823.918 326.679V375.577C823.918 375.99 823.586 376.323 823.174 376.323ZM597.322 374.831H822.429V327.425H597.322V374.831Z" fill="#06668C"/>
<path d="M608.518 362.728H647.089L639.562 341.019H600.991L608.518 362.728Z" fill="#06A1DA"/>
<path d="M781.624 341.019H820.195L812.668 362.728H774.097L781.624 341.019Z" fill="#06A1DA"/>
<path d="M743.426 341.019H689.803V362.729H743.426V341.019Z" fill="#FFFCFC"/>
<path d="M743.426 363.474H689.803C689.39 363.474 689.059 363.142 689.059 362.729V341.019C689.059 340.605 689.39 340.273 689.803 340.273H743.426C743.838 340.273 744.17 340.605 744.17 341.019V362.729C744.17 363.142 743.838 363.474 743.426 363.474ZM690.548 361.983H742.681V341.765H690.548V361.983Z" fill="#06668C"/>
<path d="M756.94 303.813H662.784C662.371 303.813 662.039 303.481 662.039 303.067C662.039 302.654 662.371 302.321 662.784 302.321H756.94C757.353 302.321 757.685 302.654 757.685 303.067C757.685 303.481 757.353 303.813 756.94 303.813Z" fill="#06668C"/>
<path d="M756.94 315.139H662.784C662.371 315.139 662.039 314.807 662.039 314.393C662.039 313.98 662.371 313.648 662.784 313.648H756.94C757.353 313.648 757.685 313.98 757.685 314.393C757.685 314.807 757.353 315.139 756.94 315.139Z" fill="#06668C"/>
<path d="M453.859 239.508H309.458C306.136 239.508 303.443 242.206 303.443 245.533V433.243C303.443 436.571 306.136 439.268 309.458 439.268H453.859C457.181 439.268 459.874 436.571 459.874 433.243V245.533C459.874 242.206 457.181 239.508 453.859 239.508Z" fill="#FFEDCC"/>
<path d="M453.857 439.798H309.458C305.849 439.798 302.911 436.858 302.911 433.241V245.533C302.911 241.919 305.847 238.976 309.458 238.976H453.857C457.465 238.976 460.403 241.916 460.403 245.533V433.241C460.403 436.855 457.468 439.798 453.857 439.798ZM309.458 240.038C306.431 240.038 303.972 242.504 303.972 245.533V433.241C303.972 436.273 306.433 438.736 309.458 438.736H453.857C456.883 438.736 459.343 436.27 459.343 433.241V245.533C459.343 242.501 456.881 240.038 453.857 240.038H309.458Z" fill="#06668C"/>
<path d="M451.741 431.64H311.576C311.282 431.64 311.047 431.404 311.047 431.11V247.664C311.047 247.37 311.282 247.134 311.576 247.134H451.741C452.034 247.134 452.27 247.37 452.27 247.664V431.11C452.27 431.404 452.034 431.64 451.741 431.64ZM312.105 430.58H451.212V248.196H312.105V430.58Z" fill="#06668C"/>
<path d="M339.27 231.057V240.589C339.27 248.812 345.915 255.478 354.113 255.478H409.204C417.402 255.478 424.047 248.812 424.047 240.589V231.057H339.27Z" fill="#FFFCFC"/>
<path d="M409.204 256.007H354.113C345.636 256.007 338.739 249.089 338.739 240.587V231.054C338.739 230.76 338.975 230.524 339.268 230.524H424.047C424.34 230.524 424.575 230.76 424.575 231.054V240.587C424.575 249.089 417.681 256.007 409.204 256.007ZM339.799 231.586V240.589C339.799 248.507 346.22 254.948 354.113 254.948H409.204C417.096 254.948 423.518 248.507 423.518 240.589V231.586H339.799Z" fill="#06668C"/>
<path d="M440.49 304.784H393.854C393.561 304.784 393.325 304.548 393.325 304.254C393.325 303.961 393.561 303.725 393.854 303.725H440.49C440.783 303.725 441.019 303.961 441.019 304.254C441.019 304.548 440.783 304.784 440.49 304.784Z" fill="#070054"/>
<path d="M377.382 304.784H356.558C356.264 304.784 356.029 304.548 356.029 304.254C356.029 303.961 356.264 303.725 356.558 303.725H377.382C377.675 303.725 377.91 303.961 377.91 304.254C377.91 304.548 377.675 304.784 377.382 304.784Z" fill="#070054"/>
<path d="M440.49 316.792H407.841C407.548 316.792 407.312 316.556 407.312 316.263C407.312 315.969 407.548 315.733 407.841 315.733H440.49C440.783 315.733 441.019 315.969 441.019 316.263C441.019 316.556 440.783 316.792 440.49 316.792Z" fill="#070054"/>
<path d="M397.273 316.792H356.558C356.264 316.792 356.029 316.556 356.029 316.263C356.029 315.969 356.264 315.733 356.558 315.733H397.273C397.566 315.733 397.802 315.969 397.802 316.263C397.802 316.556 397.566 316.792 397.273 316.792Z" fill="#070054"/>
<path d="M440.49 328.801H390.056C389.762 328.801 389.527 328.565 389.527 328.271C389.527 327.977 389.762 327.741 390.056 327.741H440.49C440.783 327.741 441.019 327.977 441.019 328.271C441.019 328.565 440.783 328.801 440.49 328.801Z" fill="#070054"/>
<path d="M377.624 328.801H356.558C356.264 328.801 356.029 328.565 356.029 328.271C356.029 327.977 356.264 327.741 356.558 327.741H377.624C377.918 327.741 378.153 327.977 378.153 328.271C378.153 328.565 377.918 328.801 377.624 328.801Z" fill="#070054"/>
<path d="M346.807 328.801H322.863C322.569 328.801 322.334 328.565 322.334 328.271V304.254C322.334 303.961 322.569 303.725 322.863 303.725H345.434C345.728 303.725 345.963 303.961 345.963 304.254C345.963 304.548 345.728 304.784 345.434 304.784H323.392V327.741H346.276V310.708C346.276 310.414 346.511 310.178 346.805 310.178C347.098 310.178 347.333 310.414 347.333 310.708V328.273C347.333 328.567 347.098 328.803 346.805 328.803L346.807 328.801Z" fill="#070054"/>
<path d="M440.49 344.664H393.854C393.561 344.664 393.325 344.428 393.325 344.134C393.325 343.84 393.561 343.604 393.854 343.604H440.49C440.783 343.604 441.019 343.84 441.019 344.134C441.019 344.428 440.783 344.664 440.49 344.664Z" fill="#070054"/>
<path d="M377.382 344.664H356.558C356.264 344.664 356.029 344.428 356.029 344.134C356.029 343.84 356.264 343.604 356.558 343.604H377.382C377.675 343.604 377.91 343.84 377.91 344.134C377.91 344.428 377.675 344.664 377.382 344.664Z" fill="#070054"/>
<path d="M440.49 356.672H407.841C407.548 356.672 407.312 356.436 407.312 356.142C407.312 355.849 407.548 355.613 407.841 355.613H440.49C440.783 355.613 441.019 355.849 441.019 356.142C441.019 356.436 440.783 356.672 440.49 356.672Z" fill="#070054"/>
<path d="M397.273 356.672H356.558C356.264 356.672 356.029 356.436 356.029 356.142C356.029 355.849 356.264 355.613 356.558 355.613H397.273C397.566 355.613 397.802 355.849 397.802 356.142C397.802 356.436 397.566 356.672 397.273 356.672Z" fill="#070054"/>
<path d="M440.49 368.68H390.056C389.762 368.68 389.527 368.444 389.527 368.151C389.527 367.857 389.762 367.621 390.056 367.621H440.49C440.783 367.621 441.019 367.857 441.019 368.151C441.019 368.444 440.783 368.68 440.49 368.68Z" fill="#070054"/>
<path d="M377.624 368.68H356.558C356.264 368.68 356.029 368.444 356.029 368.151C356.029 367.857 356.264 367.621 356.558 367.621H377.624C377.918 367.621 378.153 367.857 378.153 368.151C378.153 368.444 377.918 368.68 377.624 368.68Z" fill="#070054"/>
<path d="M346.807 368.68H322.863C322.569 368.68 322.334 368.444 322.334 368.151V344.134C322.334 343.84 322.569 343.604 322.863 343.604H345.434C345.728 343.604 345.963 343.84 345.963 344.134C345.963 344.428 345.728 344.664 345.434 344.664H323.392V367.621H346.276V350.585C346.276 350.291 346.511 350.055 346.805 350.055C347.098 350.055 347.333 350.291 347.333 350.585V368.151C347.333 368.444 347.098 368.68 346.805 368.68H346.807Z" fill="#070054"/>
<path d="M440.49 384.544H393.854C393.561 384.544 393.325 384.308 393.325 384.014C393.325 383.72 393.561 383.484 393.854 383.484H440.49C440.783 383.484 441.019 383.72 441.019 384.014C441.019 384.308 440.783 384.544 440.49 384.544Z" fill="#070054"/>
<path d="M377.382 384.544H356.558C356.264 384.544 356.029 384.308 356.029 384.014C356.029 383.72 356.264 383.484 356.558 383.484H377.382C377.675 383.484 377.91 383.72 377.91 384.014C377.91 384.308 377.675 384.544 377.382 384.544Z" fill="#070054"/>
<path d="M440.49 396.554H407.841C407.548 396.554 407.312 396.318 407.312 396.024C407.312 395.731 407.548 395.495 407.841 395.495H440.49C440.783 395.495 441.019 395.731 441.019 396.024C441.019 396.318 440.783 396.554 440.49 396.554Z" fill="#070054"/>
<path d="M397.273 396.554H356.558C356.264 396.554 356.029 396.318 356.029 396.024C356.029 395.731 356.264 395.495 356.558 395.495H397.273C397.566 395.495 397.802 395.731 397.802 396.024C397.802 396.318 397.566 396.554 397.273 396.554Z" fill="#070054"/>
<path d="M440.49 408.562H390.056C389.762 408.562 389.527 408.326 389.527 408.033C389.527 407.739 389.762 407.503 390.056 407.503H440.49C440.783 407.503 441.019 407.739 441.019 408.033C441.019 408.326 440.783 408.562 440.49 408.562Z" fill="#070054"/>
<path d="M377.624 408.562H356.558C356.264 408.562 356.029 408.326 356.029 408.033C356.029 407.739 356.264 407.503 356.558 407.503H377.624C377.918 407.503 378.153 407.739 378.153 408.033C378.153 408.326 377.918 408.562 377.624 408.562Z" fill="#070054"/>
<path d="M346.807 408.562H322.863C322.569 408.562 322.334 408.326 322.334 408.033V384.016C322.334 383.722 322.569 383.487 322.863 383.487H345.434C345.728 383.487 345.963 383.722 345.963 384.016C345.963 384.31 345.728 384.546 345.434 384.546H323.392V407.503H346.276V390.469C346.276 390.176 346.511 389.94 346.805 389.94C347.098 389.94 347.333 390.176 347.333 390.469V408.035C347.333 408.329 347.098 408.565 346.805 408.565L346.807 408.562Z" fill="#070054"/>
<path d="M440.493 267.129H322.865V291.63H440.493V267.129Z" fill="#070054"/>
<path d="M334.948 321.957C334.775 321.957 334.611 321.873 334.513 321.731L329.659 314.738C329.493 314.498 329.551 314.168 329.791 313.999C330.032 313.833 330.361 313.891 330.529 314.132L334.921 320.457L343.086 307.103C343.237 306.855 343.564 306.775 343.814 306.927C344.064 307.079 344.141 307.406 343.989 307.657L335.402 321.702C335.308 321.854 335.145 321.95 334.967 321.955H334.953L334.948 321.957Z" fill="#ED5E0B"/>
<path d="M334.948 361.912C334.775 361.912 334.611 361.827 334.513 361.685L329.659 354.693C329.493 354.452 329.551 354.122 329.791 353.954C330.032 353.787 330.361 353.845 330.529 354.086L334.921 360.412L343.086 347.057C343.237 346.809 343.564 346.73 343.814 346.882C344.064 347.033 344.141 347.361 343.989 347.611L335.402 361.656C335.308 361.808 335.145 361.904 334.967 361.909H334.953L334.948 361.912Z" fill="#ED5E0B"/>
<path d="M222.044 439.071L129.705 439.012L122.041 373.765L110.175 439.071H14.8515L42.6625 288.864H194.17L222.044 439.071Z" fill="#FFFCFC"/>
<path d="M14.799 439.633C14.763 439.633 14.7242 439.631 14.6883 439.622C14.3561 439.561 14.1402 439.242 14.2011 438.91L42.0647 288.754C42.1173 288.465 42.3719 288.255 42.6653 288.255H194.173C194.466 288.255 194.718 288.465 194.773 288.754L222.628 438.846C222.689 439.179 222.471 439.495 222.141 439.559C221.812 439.614 221.491 439.4 221.43 439.071L193.669 289.477H43.169L15.3968 439.134C15.3415 439.428 15.0868 439.633 14.799 439.633Z" fill="#06668C"/>
<path d="M110.183 439.511C110.147 439.511 110.111 439.509 110.075 439.503C109.743 439.442 109.525 439.126 109.583 438.793L121.296 373.512C121.349 373.213 121.603 373.013 121.913 373.01C122.215 373.019 122.464 373.249 122.5 373.548L130.258 438.829C130.297 439.165 130.059 439.467 129.724 439.509C129.386 439.55 129.087 439.309 129.046 438.973L121.772 377.754L110.781 439.01C110.729 439.306 110.471 439.511 110.181 439.511H110.183Z" fill="#06668C"/>
<path d="M282.756 209.068L286.681 189.033C273.93 169.863 261.414 152.508 250.379 137.233C238.521 120.824 224.029 106.592 203.89 104.975C167.77 102.078 117.573 101.13 80.8556 100.853C49.2001 100.615 21.1843 121.651 12.7757 152.265C1.80687 192.215 -1.98503 226.212 1.1343 259.401C3.48417 284.376 28.865 289.585 41.8737 290.608C40.7168 293.913 36.9193 313.246 36.9193 313.246H199.708L208.931 233.824L234.09 268.599C246.063 285.147 267.763 287.997 286.111 279.09C290.268 277.071 294.306 274.465 298.195 271.419C284.893 239.191 282.759 209.065 282.759 209.065L282.756 209.068Z" fill="#06A1DA"/>
<path d="M346.059 193.43L301.94 212.772C296.869 204.577 291.757 196.665 286.681 189.036L282.756 209.071C282.756 209.071 250.796 261.275 298.192 271.424C324.038 251.181 343.23 211.372 346.059 193.435V193.43Z" fill="#FFFCFC"/>
<path d="M298.192 272.029C298.01 272.029 297.833 271.948 297.711 271.793C297.503 271.527 297.55 271.144 297.816 270.936C324.708 249.876 342.854 209.83 345.456 193.333C345.508 193 345.821 192.77 346.153 192.825C346.485 192.878 346.712 193.191 346.66 193.524C345.134 203.191 339.245 217.881 331.284 231.861C321.738 248.634 310.119 262.852 298.566 271.898C298.455 271.984 298.322 272.029 298.192 272.029Z" fill="#06668C"/>
<path d="M40.2518 236.558C40.0635 236.558 39.8781 236.472 39.7591 236.308C39.5598 236.036 39.6179 235.654 39.8919 235.454C57.4565 222.586 78.0241 210.942 99.375 201.788C99.6822 201.655 100.042 201.796 100.175 202.11C100.308 202.42 100.164 202.778 99.8538 202.911C78.5859 212.032 58.1014 223.625 40.6116 236.441C40.5036 236.522 40.3763 236.56 40.2518 236.56V236.558Z" fill="#06668C"/>
<path d="M68.5084 218.366C68.4696 218.366 68.4281 218.363 68.3866 218.355C68.0572 218.288 67.8441 217.967 67.9105 217.637L76.6624 174.057C76.7288 173.727 77.0498 173.511 77.3792 173.58C77.7086 173.647 77.9217 173.968 77.8553 174.298L69.1035 217.881C69.0453 218.169 68.7907 218.372 68.5056 218.372L68.5084 218.366Z" fill="#06668C"/>
<path d="M208.931 234.437C208.886 234.437 208.842 234.431 208.798 234.423C208.468 234.351 208.261 234.027 208.333 233.697C211.322 220.079 217.273 174.093 217.334 173.63C217.378 173.295 217.688 173.062 218.017 173.104C218.352 173.148 218.587 173.453 218.543 173.788C218.482 174.251 212.523 220.29 209.526 233.96C209.462 234.246 209.21 234.44 208.931 234.44V234.437Z" fill="#06668C"/>
<path d="M45.6186 291.379C44.3094 291.379 42.9947 291.343 41.6745 291.265C41.3396 291.246 41.0821 290.958 41.1015 290.622C41.1209 290.287 41.4115 290.026 41.7437 290.048C86.3248 292.596 126.671 249.945 127.075 249.512C127.305 249.266 127.692 249.252 127.936 249.482C128.182 249.712 128.196 250.097 127.967 250.344C127.864 250.452 117.626 261.353 101.968 271.779C88.301 280.88 67.7389 291.376 45.6186 291.376V291.379Z" fill="#06668C"/>
<path d="M364.396 159.877H301.099C299.748 159.877 298.475 160.498 297.642 161.563L246.614 226.688C244.347 229.583 246.401 233.827 250.071 233.827H311.179C312.496 233.827 313.745 233.234 314.581 232.211L367.797 167.085C370.15 164.205 368.107 159.877 364.396 159.877Z" fill="#06668C"/>
<path d="M336.41 168.258C335.666 167.556 334.609 166.872 333.717 167.362C332.945 167.789 332.801 168.845 332.751 169.746C332.259 178.565 331.766 187.381 331.273 196.199C331.379 188.315 329.38 180.156 324.404 174.146C323.178 172.666 321.016 171.274 319.566 172.521C318.694 173.273 318.627 174.606 318.677 175.776C319.103 185.676 322.964 195.905 319.574 205.181C318.97 199.285 317.603 193.469 315.522 187.938C314.669 185.67 313.612 183.341 311.683 181.933C309.754 180.525 306.717 180.439 305.275 182.366C303.742 184.412 304.691 187.325 305.533 189.756C307.974 196.801 309.009 204.358 308.555 211.818C307.62 205.988 306.452 199.701 302.211 195.7C300.969 194.528 299.438 193.585 297.755 193.444C296.072 193.302 294.251 194.114 293.523 195.678C292.723 197.397 293.385 199.412 293.919 201.236C295.984 208.267 295.937 215.91 293.933 222.949C292.43 228.227 285.984 235.332 292.801 239.455C295.14 240.868 298.029 240.979 300.717 240.583C308.312 239.466 314.913 234.761 320.847 229.771C326.909 224.679 332.663 219.087 337.086 212.45C341.509 205.813 345.71 198.043 345.934 190.006C346.159 181.969 342.184 173.686 336.41 168.255V168.258Z" fill="#FFFCFC"/>
<path d="M94.4566 202.816C94.4124 202.816 94.3681 202.811 94.3238 202.803C93.9944 202.731 93.7868 202.403 93.8588 202.074L98.9986 178.742C99.0706 178.412 99.3917 178.207 99.7266 178.277C100.056 178.349 100.264 178.676 100.192 179.006L95.0517 202.337C94.9881 202.622 94.7362 202.816 94.4566 202.816Z" fill="#06668C"/>
<path d="M106.591 179.385C106.552 179.385 106.513 179.383 106.474 179.374C106.145 179.311 105.929 178.989 105.993 178.659C108.714 164.623 111.767 146.676 112.176 138.389C112.661 128.62 111.609 114.47 103.842 102.561C103.657 102.278 103.737 101.901 104.019 101.715C104.302 101.53 104.678 101.61 104.864 101.893C112.81 114.077 113.889 128.498 113.397 138.448C112.984 146.798 109.92 164.812 107.191 178.889C107.136 179.18 106.881 179.383 106.593 179.383L106.591 179.385Z" fill="#06668C"/>
<path d="M197.632 177.193C197.594 177.193 197.558 177.19 197.519 177.182C197.187 177.118 196.971 176.799 197.034 176.469C200.691 157.063 202.692 144.25 202.98 138.389C203.605 125.756 201.297 114.318 196.301 105.311C196.138 105.017 196.243 104.646 196.539 104.482C196.832 104.316 197.203 104.424 197.367 104.72C202.473 113.927 204.837 125.59 204.198 138.453C203.904 144.369 201.898 157.238 198.23 176.699C198.175 176.993 197.92 177.195 197.632 177.195V177.193Z" fill="#06668C"/>
<path d="M99.5771 179.494C99.2477 179.494 98.9764 179.23 98.9681 178.898C98.9598 178.559 99.2283 178.282 99.5632 178.274L207.934 175.867H207.948C208.277 175.867 208.549 176.131 208.557 176.464C208.565 176.802 208.297 177.079 207.962 177.087L99.5909 179.494H99.5771Z" fill="#06668C"/>
<path d="M99.685 201.99C99.685 201.99 122.312 186.211 164.56 172.879C169.132 171.437 174.087 173.406 176.464 177.578L178.623 181.365L192.991 181.068C196.121 181.004 198.695 183.53 198.701 186.671V187.777C198.706 190.38 196.924 192.645 194.4 193.247L182.661 196.041C182.661 196.041 186.199 202.542 178.515 208.167C178.515 208.167 181.74 214.069 174.377 218.793C174.377 218.793 175.609 226.436 161.255 227.154L127.518 249.607L99.6823 201.99H99.685Z" fill="#FFFCFC"/>
<path d="M168.529 220.223C166.766 220.223 165 220.032 163.287 219.652C162.957 219.58 162.75 219.253 162.824 218.923C162.896 218.593 163.22 218.388 163.552 218.46C166.719 219.164 170.07 219.181 173.245 218.516C173.572 218.446 173.898 218.657 173.967 218.987C174.037 219.317 173.826 219.641 173.497 219.711C171.872 220.052 170.201 220.223 168.532 220.223H168.529Z" fill="#06668C"/>
<path d="M171.565 210.019C169.863 210.019 168.166 209.816 166.746 209.52C166.417 209.45 166.207 209.129 166.273 208.799C166.342 208.469 166.66 208.256 166.995 208.325C170.386 209.032 174.864 209.071 177.22 207.56C177.502 207.377 177.878 207.46 178.061 207.746C178.244 208.028 178.161 208.405 177.876 208.588C176.243 209.636 173.901 210.019 171.565 210.019Z" fill="#06668C"/>
<path d="M141.349 188.897C141.061 188.897 140.804 188.692 140.751 188.398C140.69 188.065 140.909 187.746 141.238 187.686L178.512 180.763C178.844 180.699 179.16 180.921 179.224 181.251C179.284 181.584 179.066 181.903 178.736 181.964L141.462 188.886C141.424 188.894 141.388 188.897 141.352 188.897H141.349Z" fill="#06668C"/>
<path d="M168.44 198.694C168.141 198.694 167.881 198.475 167.837 198.17C167.79 197.838 168.02 197.527 168.354 197.48L182.575 195.44C182.908 195.392 183.218 195.622 183.265 195.958C183.312 196.291 183.082 196.601 182.747 196.648L168.526 198.689C168.496 198.691 168.468 198.694 168.44 198.694Z" fill="#06668C"/>
<path d="M230.727 197.899L221.048 195.667C220.907 196.476 220.295 197.144 219.476 197.339L219.255 197.391L230.262 199.931C230.544 199.997 230.83 199.939 231.056 199.792C231.278 199.651 231.447 199.423 231.51 199.146C231.638 198.586 231.289 198.026 230.73 197.896L230.727 197.899Z" fill="#06668C"/>
<path d="M117.144 169.965C115.644 169.619 114.147 170.559 113.804 172.064C113.458 173.569 114.396 175.069 115.896 175.416L158.158 185.166L171.941 182.607L117.144 169.965Z" fill="#FFFCFC"/>
<path d="M158.155 185.775C158.108 185.775 158.064 185.77 158.019 185.759L142.038 182.072C141.711 181.997 141.507 181.667 141.581 181.34C141.656 181.013 141.983 180.807 142.312 180.882L158.169 184.539L168.944 182.537L150.848 178.362C150.521 178.288 150.317 177.958 150.391 177.63C150.466 177.303 150.79 177.095 151.122 177.173L172.074 182.005C172.357 182.069 172.553 182.324 172.548 182.612C172.542 182.901 172.334 183.147 172.049 183.2L158.266 185.759C158.23 185.764 158.191 185.77 158.155 185.77V185.775Z" fill="#06668C"/>
<path d="M224.582 194.749L198.62 188.761C198.238 190.937 196.605 192.725 194.402 193.249L193.807 193.391L223.334 200.202C224.095 200.377 224.854 200.224 225.463 199.834C226.055 199.454 226.506 198.847 226.678 198.104C227.024 196.598 226.085 195.099 224.585 194.752L224.582 194.749Z" fill="#FFFCFC"/>
<path d="M193.442 194.181C193.157 194.181 192.902 193.979 192.844 193.688C192.78 193.358 192.993 193.036 193.326 192.969C197.206 192.204 197.796 189.23 197.818 189.105C197.879 188.775 198.194 188.553 198.524 188.614C198.853 188.673 199.074 188.986 199.016 189.318C198.989 189.479 198.286 193.238 193.558 194.17C193.519 194.178 193.478 194.181 193.439 194.181H193.442Z" fill="#06668C"/>
<path d="M116.508 101.992L132.403 99.0594L145.974 61.0851L176.052 59.8625L179.096 73.6794L169.622 100.85L179.096 105.014C171.369 117.545 155.337 122.014 142.273 115.277L116.508 101.992Z" fill="#FFFCFC"/>
<path d="M179.094 105.627C179.013 105.627 178.928 105.61 178.85 105.577L169.373 101.413C169.082 101.286 168.938 100.953 169.041 100.653L178.46 73.6462L175.562 60.4974L145.979 61.7865L132.976 99.2618C132.904 99.4697 132.727 99.6222 132.511 99.661L116.619 102.594C116.284 102.658 115.971 102.436 115.907 102.103C115.846 101.771 116.065 101.452 116.397 101.391L131.941 98.5216L144.966 60.9909C145.049 60.7552 145.265 60.5916 145.514 60.5806L176.021 59.2499C176.021 59.2499 176.041 59.2499 176.049 59.2499C176.334 59.2499 176.583 59.4467 176.644 59.7295L179.689 73.5464C179.714 73.6573 179.705 73.7709 179.669 73.879L170.381 100.518L179.34 104.454C179.647 104.59 179.788 104.95 179.653 105.258C179.553 105.488 179.329 105.624 179.094 105.624V105.627Z" fill="#06668C"/>
<path d="M165.733 73.3052C172.556 78.2703 193.666 75.121 200.356 63.8296C197.303 48.9204 192.6 29.6061 192.6 29.6061L150.973 39.9383C153.757 48.28 161.366 70.1282 165.733 73.3052Z" fill="#FFFCFC"/>
<path d="M175.216 76.1911C171.081 76.1911 167.532 75.3677 165.376 73.7986C160.912 70.5495 153.414 49.1727 150.397 40.1324C150.341 39.9716 150.358 39.7942 150.441 39.6445C150.521 39.4948 150.663 39.3866 150.829 39.3451L192.457 29.0129C192.614 28.9741 192.78 28.999 192.919 29.0822C193.057 29.1653 193.157 29.3012 193.196 29.4592C193.243 29.6533 197.937 48.9565 200.956 63.7048C200.987 63.8546 200.962 64.007 200.885 64.1401C197.724 69.4739 190.854 73.6905 182.509 75.4148C179.99 75.936 177.513 76.1883 175.219 76.1883L175.216 76.1911ZM151.761 40.3708C157.878 58.6178 163.226 70.7242 166.093 72.8117C169.182 75.06 175.529 75.6144 182.263 74.22C190.173 72.5844 196.672 68.6672 199.714 63.7187C196.998 50.484 192.966 33.6952 192.155 30.3463L151.761 40.3708Z" fill="#06668C"/>
<path d="M202.8 77.8517C202.216 74.8244 201.549 69.6403 200.359 63.8296C193.669 75.1238 172.559 78.2703 165.736 73.3052C161.368 70.1282 153.76 48.2801 150.975 39.9384L137.878 43.1902C137.878 43.1902 146.998 74.0121 160.928 90.0108C174.186 105.236 205.659 92.6805 202.803 77.8544L202.8 77.8517Z" fill="#666666"/>
<path d="M177.533 97.5624C171.197 97.5624 164.922 95.5303 160.463 90.41C146.608 74.4973 137.38 43.6726 137.289 43.3621C137.241 43.2013 137.261 43.0294 137.344 42.8853C137.427 42.7411 137.565 42.6358 137.726 42.5969L150.823 39.3451C151.13 39.2702 151.446 39.4421 151.548 39.7443C157.754 58.3406 163.19 70.702 166.088 72.8117C169.176 75.06 175.523 75.6145 182.257 74.22C190.273 72.5622 196.841 68.5619 199.83 63.5164C199.957 63.3001 200.204 63.1865 200.456 63.2253C200.705 63.2669 200.901 63.4582 200.951 63.7049C201.69 67.3088 202.232 70.702 202.667 73.4272C202.938 75.1238 203.174 76.5875 203.392 77.7352C204.574 83.8675 200.229 90.1577 192.052 94.1525C187.782 96.24 182.634 97.5596 177.53 97.5596L177.533 97.5624ZM138.648 43.6282C140.018 48.0361 148.78 75.1321 161.385 89.6088C169.016 98.3719 182.357 97.5402 191.524 93.0603C199.182 89.3177 203.273 83.5348 202.202 77.9709C201.978 76.8038 201.743 75.3317 201.469 73.624C201.095 71.2814 200.641 68.4427 200.051 65.407C196.611 70.1393 190.184 73.8319 182.509 75.4204C175.454 76.8786 168.731 76.2438 165.379 73.8042C161 70.6189 153.702 49.9933 150.577 40.6702L138.65 43.631L138.648 43.6282Z" fill="#06668C"/>
<path d="M145.658 52.3083C145.658 52.3083 137.756 45.6355 134.117 55.4298C130.477 65.2242 145.168 70.0701 151.014 65.507L145.658 52.3083Z" fill="#FFFCFC"/>
<path d="M145.135 67.8577C142.207 67.8577 139.065 66.9374 136.633 65.152C133.248 62.6681 132.121 59.0448 133.544 55.2163C134.695 52.1141 136.397 50.2484 138.6 49.669C142.276 48.7015 145.894 51.7149 146.046 51.8424C146.121 51.9062 146.182 51.9866 146.217 52.0781L151.573 65.2768C151.676 65.5291 151.598 65.8201 151.382 65.9893C149.774 67.2451 147.521 67.8605 145.13 67.8605L145.135 67.8577ZM140.103 50.7003C139.708 50.7003 139.306 50.7474 138.908 50.85C137.111 51.324 135.692 52.9375 134.687 55.6432C133.018 60.1343 135.642 62.9121 137.352 64.1679C141.15 66.9568 147.04 67.4336 150.267 65.2906L145.149 52.6852C144.634 52.286 142.437 50.6975 140.101 50.6975L140.103 50.7003Z" fill="#06668C"/>
<path d="M145.409 62.5572C145.238 62.5572 145.066 62.4851 144.947 62.3437C143.746 60.941 142.002 60.0566 140.164 59.9208C139.829 59.8958 139.577 59.6047 139.602 59.2665C139.627 58.9311 139.921 58.6733 140.256 58.7037C142.417 58.8618 144.463 59.9014 145.874 61.5481C146.093 61.8031 146.065 62.1885 145.808 62.4075C145.692 62.5073 145.55 62.5544 145.412 62.5544L145.409 62.5572Z" fill="#06668C"/>
<path d="M209.836 25.0514L192.418 25.9523L136.453 41.6322C136.289 44.033 138.517 45.8904 140.842 45.2888L210.301 28.2201C212.188 27.7571 211.779 24.9516 209.836 25.0514Z" fill="#070054"/>
<path d="M187.95 31.5578L192.415 25.9496C192.415 25.9496 183.253 -5.54044 155.636 0.857914C120.795 8.93071 136.45 41.6294 136.45 41.6294L187.948 31.5578H187.95Z" fill="#070054"/>
</g>
<defs>
<clipPath id="clip0_75_24488">
<rect width="823.837" height="452" fill="white" transform="translate(0.0814209)"/>
</clipPath>
</defs>
</svg>
