<svg width="136" height="53" viewBox="0 0 136 53" fill="none" xmlns="http://www.w3.org/2000/svg">
<path d="M93.6039 43.0577H46.686" stroke="#151522" stroke-width="2" stroke-miterlimit="10"/>
<path d="M113.353 40.8139C113.353 46.5007 108.754 51.0657 103.111 51.0657C97.4686 51.0657 92.8696 46.462 92.8696 40.8139C92.8696 35.1657 97.4686 30.562 103.111 30.562C108.754 30.562 113.353 35.1657 113.353 40.8139Z" stroke="#151522" stroke-width="2" stroke-miterlimit="10"/>
<path d="M41.1208 40.8139C41.1208 46.5007 36.5218 51.0657 30.8792 51.0657C25.2367 51.0657 20.6377 46.462 20.6377 40.8139C20.6377 35.1657 25.2367 30.562 30.8792 30.562C36.5218 30.562 41.1208 35.1657 41.1208 40.8139Z" stroke="#151522" stroke-width="2" stroke-miterlimit="10"/>
<path d="M39.8454 14.4299L43.7488 17.9504C43.7488 17.9504 77.1788 17.254 103.691 17.138C107.672 17.138 110.493 11.0642 110.493 11.0642" stroke="#151522" stroke-width="2" stroke-miterlimit="10"/>
<path d="M86.686 4.02335C86.4541 12.6117 84.4445 17.3314 84.4445 17.3314" stroke="#151522" stroke-width="2" stroke-miterlimit="10"/>
<path d="M113.353 43.0577H135.614" stroke="#151522" stroke-width="2" stroke-miterlimit="10"/>
<path d="M135.614 51.0657H1.6232" stroke="#151522" stroke-width="2" stroke-miterlimit="10"/>
<path d="M21.372 43.0577H5.41063C5.41063 43.0577 5.33334 37.7577 1.93237 34.7788V27.854C11.7102 22.7861 25.0821 17.8343 39.8454 14.4299C39.8454 14.4299 59.2077 2.90147 63.1884 2.32118C74.3575 0.696363 98.4348 4.64235 107.71 9.67155L118.3 14.8555C124.406 16.4416 130.86 16.5964 130.86 16.5964L131.13 25.8423L134.106 28.6278V33.1927C134.106 40.8139 113.391 43.0964 113.391 43.0964" stroke="#151522" stroke-width="2" stroke-miterlimit="10"/>
</svg>
