<svg width="120" height="63" viewBox="0 0 120 63" fill="none" xmlns="http://www.w3.org/2000/svg">
<g clip-path="url(#clip0_38_17275)">
<path d="M49.2654 6.59021C49.2654 6.59021 49.5853 17.944 47.1683 20.487C45.9242 21.7764 22.8199 21.5257 22.8199 21.5257L18.8744 18.9469" stroke="#151522" stroke-width="2" stroke-miterlimit="10"/>
<path d="M84.4194 49.7491H38.7441" stroke="#151522" stroke-width="2" stroke-miterlimit="10"/>
<path d="M33.981 48.1374C33.981 53.4024 29.7512 57.6287 24.5616 57.6287C19.372 57.6287 15.1422 53.3666 15.1422 48.1374C15.1422 42.9082 19.372 38.646 24.5616 38.646C29.7512 38.646 33.981 42.9082 33.981 48.1374Z" stroke="#151522" stroke-width="2" stroke-miterlimit="10"/>
<path d="M104.147 48.1374C104.147 53.4024 99.917 57.6287 94.7275 57.6287C89.5379 57.6287 85.308 53.3666 85.308 48.1374C85.308 42.9082 89.5379 38.646 94.7275 38.646C99.917 38.646 104.147 42.9082 104.147 48.1374Z" stroke="#151522" stroke-width="2" stroke-miterlimit="10"/>
<path d="M14.2536 49.7491H3.19906C3.19906 49.7491 1.70617 45.0929 3.05688 41.5113L4.90522 38.3952V32.3064C4.90522 29.8709 11.1967 22.0987 18.91 18.9469C18.91 18.9469 29.7157 3.72486 36.9668 2.14894C38.5308 1.82659 106.528 1.79077 111.682 1.79077C113.602 1.79077 115.166 3.3667 115.166 5.30079L115.237 41.5113H117.974V45.7376C117.974 47.9582 116.197 49.7491 113.993 49.7491H104.787" stroke="#151522" stroke-width="2" stroke-miterlimit="10"/>
<path d="M119.964 60.4583L0 60.7806" stroke="#151522" stroke-width="2" stroke-miterlimit="10"/>
<path d="M115.201 41.5114H109.123" stroke="#151522" stroke-width="2" stroke-miterlimit="10"/>
</g>
<defs>
<clipPath id="clip0_38_17275">
<rect width="120" height="62.5714" fill="white"/>
</clipPath>
</defs>
</svg>
