<svg width="132" height="59" viewBox="0 0 132 59" fill="none" xmlns="http://www.w3.org/2000/svg">
<path d="M90.2358 48.8237H49.1758" stroke="#151522" stroke-width="2" stroke-miterlimit="10"/>
<path d="M43.8024 44.5596C43.8024 51.0661 38.5031 56.3228 31.9439 56.3228C25.3846 56.3228 20.0854 51.0661 20.0854 44.5596C20.0854 38.0531 25.3846 32.7964 31.9439 32.7964C38.5031 32.7964 43.8024 38.0531 43.8024 44.5596Z" stroke="#151522" stroke-width="2" stroke-miterlimit="10"/>
<path d="M113.953 44.5596C113.953 51.0661 108.654 56.3228 102.094 56.3228C95.5351 56.3228 90.2358 51.0661 90.2358 44.5596C90.2358 38.0531 95.5351 32.7964 102.094 32.7964C108.654 32.7964 113.953 38.0531 113.953 44.5596Z" stroke="#151522" stroke-width="2" stroke-miterlimit="10"/>
<path d="M38.5401 15.2618L43.1353 18.5702C43.1353 18.5702 61.4048 18.9746 96.4245 17.5777C100.686 17.3939 101.687 9.19641 101.687 9.19641" stroke="#151522" stroke-width="2" stroke-miterlimit="10"/>
<path d="M81.7125 2.5061C81.7125 2.5061 77.7844 10.3727 76.3021 18.2394" stroke="#151522" stroke-width="2" stroke-miterlimit="10"/>
<path d="M20.0483 48.8237H4.9287C1.88996 47.4269 2.33466 43.273 2.33466 43.273L5.89221 41.6923V26.9883C5.89221 26.9883 5.89221 19.8568 38.5402 15.2251C38.5402 15.2251 54.4009 4.7117 62.7389 2.91046C75.0792 0.300496 114.36 5.55718 114.36 5.55718L113.063 8.49798C113.063 8.49798 116.955 14.4899 126.664 19.9671C129.962 21.8419 126.96 35.0387 126.96 35.0387H130.11V42.1334C127.59 44.9639 118.066 48.7502 113.953 48.7502" stroke="#151522" stroke-width="2" stroke-miterlimit="10"/>
<path d="M121.364 35.149H126.96" stroke="#151522" stroke-width="2" stroke-miterlimit="10"/>
<path d="M5.89218 41.729H11.1173" stroke="#151522" stroke-width="2" stroke-miterlimit="10"/>
<path d="M114.472 48.8237H131.852" stroke="#151522" stroke-width="2" stroke-miterlimit="10"/>
<path d="M0 56.3228H131.852" stroke="#151522" stroke-width="2" stroke-miterlimit="10"/>
</svg>
