<svg width="21" height="21" viewBox="0 0 21 21" fill="none" xmlns="http://www.w3.org/2000/svg">
<path d="M9.66663 3.83332H3.83329C3.39127 3.83332 2.96734 4.00891 2.65478 4.32147C2.34222 4.63403 2.16663 5.05796 2.16663 5.49999V17.1667C2.16663 17.6087 2.34222 18.0326 2.65478 18.3452C2.96734 18.6577 3.39127 18.8333 3.83329 18.8333H15.5C15.942 18.8333 16.3659 18.6577 16.6785 18.3452C16.991 18.0326 17.1666 17.6087 17.1666 17.1667V11.3333M15.9166 2.58332C16.2481 2.2518 16.6978 2.06555 17.1666 2.06555C17.6355 2.06555 18.0851 2.2518 18.4166 2.58332C18.7481 2.91484 18.9344 3.36448 18.9344 3.83332C18.9344 4.30216 18.7481 4.7518 18.4166 5.08332L10.5 13L7.16663 13.8333L7.99996 10.5L15.9166 2.58332Z" stroke="#06668C" stroke-width="2" stroke-linecap="round" stroke-linejoin="round"/>
</svg>
