<svg width="142" height="58" viewBox="0 0 142 58" fill="none" xmlns="http://www.w3.org/2000/svg">
<path d="M142 55.5539H0" stroke="#151522" stroke-width="2" stroke-miterlimit="10"/>
<path d="M46.1667 15.0246L50.5317 17.9705C50.5317 17.9705 80.8114 19.4881 102.597 15.5155C111.288 13.9087 114.984 13.6408 124.54 14.2211C124.54 14.2211 128.315 14.6675 136.259 14.8014L136.573 28.2368L139.916 29.799V40.4224C137.242 43.8593 124.855 46.4036 120.49 46.4036" stroke="#151522" stroke-width="2" stroke-miterlimit="10"/>
<path d="M27.2911 46.4482H6.09528V39.9314L9.90973 38.1013L6.76379 30.9149C6.76379 30.9149 13.0163 23.1929 46.1274 15.0692C46.1274 15.0692 57.3348 7.83817 71.0197 2.92822" stroke="#151522" stroke-width="2" stroke-miterlimit="10"/>
<path d="M121.709 43.7254C121.709 50.2869 117.029 55.5539 111.288 55.5539C105.546 55.5539 100.867 50.2423 100.867 43.7254C100.867 37.2086 105.546 31.8969 111.288 31.8969C117.029 31.8969 121.709 37.2086 121.709 43.7254Z" stroke="#151522" stroke-width="2" stroke-miterlimit="10"/>
<path d="M46.6779 43.7254C46.6779 50.2869 41.9983 55.5539 36.257 55.5539C30.5157 55.5539 25.8361 50.2423 25.8361 43.7254C25.8361 37.2086 30.5157 31.8969 36.257 31.8969C41.9983 31.8969 46.6779 37.2086 46.6779 43.7254Z" stroke="#151522" stroke-width="2" stroke-miterlimit="10"/>
<path d="M101.85 46.4482H51.6721" stroke="#151522" stroke-width="2" stroke-miterlimit="10"/>
<path d="M6.09526 46.4482H0" stroke="#151522" stroke-width="2" stroke-miterlimit="10"/>
<path d="M16.005 38.1013H9.90973" stroke="#151522" stroke-width="2" stroke-miterlimit="10"/>
<path d="M136.573 28.2367C132.169 28.0136 128.158 27.9243 124.54 27.9689" stroke="#151522" stroke-width="2" stroke-miterlimit="10"/>
<path d="M121.04 46.4482H142" stroke="#151522" stroke-width="2" stroke-miterlimit="10"/>
<path d="M99.4905 9.22186L97.2883 16.3636" stroke="#151522" stroke-width="2" stroke-miterlimit="10"/>
</svg>
