<svg width="16" height="16" viewBox="0 0 16 16" fill="none" xmlns="http://www.w3.org/2000/svg">
<g clip-path="url(#clip0_155_2184)">
<path d="M4 4.00004H4.00667M4 12H4.00667M2.66667 1.33337H13.3333C14.0697 1.33337 14.6667 1.93033 14.6667 2.66671V5.33337C14.6667 6.06975 14.0697 6.66671 13.3333 6.66671H2.66667C1.93029 6.66671 1.33334 6.06975 1.33334 5.33337V2.66671C1.33334 1.93033 1.93029 1.33337 2.66667 1.33337ZM2.66667 9.33337H13.3333C14.0697 9.33337 14.6667 9.93033 14.6667 10.6667V13.3334C14.6667 14.0698 14.0697 14.6667 13.3333 14.6667H2.66667C1.93029 14.6667 1.33334 14.0698 1.33334 13.3334V10.6667C1.33334 9.93033 1.93029 9.33337 2.66667 9.33337Z" stroke="#06668C" stroke-width="1.6" stroke-linecap="round" stroke-linejoin="round"/>
</g>
<defs>
<clipPath id="clip0_155_2184">
<rect width="16" height="16" fill="white"/>
</clipPath>
</defs>
</svg>
