<svg width="97" height="97" viewBox="0 0 97 97" fill="none" xmlns="http://www.w3.org/2000/svg">
<path d="M64.3809 64.3809V12.0714H4.0238V64.3809H64.3809ZM64.3809 64.3809H92.5476V44.2619L80.4762 32.1905H64.3809V64.3809ZM32.1905 74.4404C32.1905 79.9962 27.6867 84.5 22.1309 84.5C16.5752 84.5 12.0714 79.9962 12.0714 74.4404C12.0714 68.8847 16.5752 64.3809 22.1309 64.3809C27.6867 64.3809 32.1905 68.8847 32.1905 74.4404ZM84.5 74.4404C84.5 79.9962 79.9962 84.5 74.4405 84.5C68.8847 84.5 64.3809 79.9962 64.3809 74.4404C64.3809 68.8847 68.8847 64.3809 74.4405 64.3809C79.9962 64.3809 84.5 68.8847 84.5 74.4404Z" stroke="#06668C" stroke-width="4" stroke-linecap="round" stroke-linejoin="round"/>
</svg>
