<svg width="142" height="57" viewBox="0 0 142 57" fill="none" xmlns="http://www.w3.org/2000/svg">
<path d="M142 54.7682H0" stroke="#151522" stroke-width="2" stroke-miterlimit="10"/>
<path d="M46.1667 14.2389L50.5317 17.1848C50.5317 17.1848 80.8114 18.7024 102.597 14.7298C111.288 13.123 114.984 12.8551 124.54 13.4354C124.54 13.4354 128.315 13.8818 136.259 14.0157L136.573 27.4511L139.916 29.0133V39.6367C137.242 43.0736 124.855 45.6179 120.49 45.6179" stroke="#151522" stroke-width="2" stroke-miterlimit="10"/>
<path d="M27.2911 45.6625H6.09528V39.1457L9.90973 37.3156L6.76379 30.1292C6.76379 30.1292 13.0163 22.4072 46.1274 14.2835C46.1274 14.2835 57.3348 7.05246 71.0197 2.14252" stroke="#151522" stroke-width="2" stroke-miterlimit="10"/>
<path d="M121.709 42.9397C121.709 49.5012 117.029 54.7682 111.288 54.7682C105.546 54.7682 100.867 49.4565 100.867 42.9397C100.867 36.4229 105.546 31.1112 111.288 31.1112C117.029 31.1112 121.709 36.4229 121.709 42.9397Z" stroke="#151522" stroke-width="2" stroke-miterlimit="10"/>
<path d="M46.6779 42.9397C46.6779 49.5012 41.9983 54.7682 36.257 54.7682C30.5157 54.7682 25.8361 49.4565 25.8361 42.9397C25.8361 36.4229 30.5157 31.1112 36.257 31.1112C41.9983 31.1112 46.6779 36.4229 46.6779 42.9397Z" stroke="#151522" stroke-width="2" stroke-miterlimit="10"/>
<path d="M101.85 45.6625H51.6721" stroke="#151522" stroke-width="2" stroke-miterlimit="10"/>
<path d="M6.09526 45.6625H0" stroke="#151522" stroke-width="2" stroke-miterlimit="10"/>
<path d="M16.005 37.3156H9.90973" stroke="#151522" stroke-width="2" stroke-miterlimit="10"/>
<path d="M136.573 27.451C132.169 27.2279 128.158 27.1386 124.54 27.1832" stroke="#151522" stroke-width="2" stroke-miterlimit="10"/>
<path d="M121.04 45.6625H142" stroke="#151522" stroke-width="2" stroke-miterlimit="10"/>
<path d="M99.4905 8.43616L97.2883 15.5779" stroke="#151522" stroke-width="2" stroke-miterlimit="10"/>
</svg>
